<?xml version="1.0" standalone="no"?>
<!DOCTYPE svg PUBLIC "-//W3C//DTD SVG 20010904//EN"
 "http://www.w3.org/TR/2001/REC-SVG-20010904/DTD/svg10.dtd">
<svg version="1.0" xmlns="http://www.w3.org/2000/svg"
 width="700.000000pt" height="700.000000pt" viewBox="0 0 700.000000 700.000000"
 preserveAspectRatio="xMidYMid meet">
<metadata>
Created by potrace 1.14, written by Peter Selinger 2001-2017
</metadata>
<g transform="translate(0.000000,700.000000) scale(0.100000,-0.100000)"
fill="#000000" stroke="none">
<path d="M2040 6975 c-63 -13 -153 -31 -200 -40 -47 -9 -94 -19 -105 -21 -59
-12 -134 -26 -160 -30 -16 -3 -52 -9 -80 -15 -27 -6 -61 -13 -75 -15 -14 -2
-72 -13 -130 -24 -58 -10 -118 -22 -135 -24 -16 -3 -73 -14 -125 -25 -52 -11
-106 -22 -120 -24 -64 -12 -147 -28 -170 -32 -14 -3 -41 -8 -60 -11 -19 -3
-51 -9 -70 -14 -19 -5 -51 -11 -70 -14 -53 -9 -93 -16 -110 -21 -8 -3 -33 -7
-55 -11 -22 -3 -71 -12 -110 -20 -38 -8 -85 -17 -104 -20 -39 -7 -52 -9 -108
-22 -23 -5 -44 -7 -48 -4 -3 3 -5 -234 -5 -526 l0 -532 73 -1 c39 -1 122 -3
182 -5 61 -2 171 -5 245 -8 74 -2 183 -5 243 -5 l107 -1 0 -2675 0 -2675 48
-1 c26 0 94 -2 152 -4 58 -2 202 -6 320 -9 118 -4 305 -9 415 -12 110 -3 219
-7 243 -8 24 -2 45 1 48 5 2 5 11 6 18 3 17 -7 448 74 460 86 6 6 9 635 9
1560 0 852 1 1549 2 1548 2 -2 114 -225 250 -496 136 -270 252 -495 259 -499
6 -4 54 -8 106 -9 52 -1 187 -4 300 -8 566 -16 663 -19 755 -19 55 0 114 2
130 6 17 3 48 9 70 13 22 3 42 7 45 9 3 2 23 6 45 10 22 3 89 16 148 28 l109
22 57 110 c31 61 118 229 193 375 75 146 164 317 197 380 l61 115 0 -1666 0
-1666 148 -3 c81 -1 183 -3 227 -5 93 -3 491 -15 715 -20 85 -2 175 0 200 5
25 5 119 23 210 40 91 18 172 33 180 35 8 2 18 4 23 4 4 1 7 1483 7 3294 0
2628 -3 3294 -12 3294 -7 1 -114 4 -238 7 -124 4 -283 9 -355 11 -601 19 -631
18 -775 -10 -74 -15 -146 -29 -160 -31 -98 -17 -172 -32 -175 -36 -1 -2 -15
-30 -32 -63 -56 -110 -205 -399 -263 -510 -32 -60 -101 -195 -155 -300 -162
-316 -265 -515 -320 -620 -29 -55 -99 -190 -155 -300 -56 -110 -131 -254 -165
-320 -34 -66 -103 -199 -153 -295 l-90 -175 -455 905 c-402 801 -453 906 -434
907 22 0 78 10 107 18 8 2 33 6 55 10 22 3 47 7 55 10 8 2 29 7 45 9 68 12 83
18 87 34 2 9 3 246 3 526 -1 470 -2 509 -18 512 -9 1 -20 -2 -23 -7 -4 -6 -10
-6 -17 0 -7 5 -120 12 -252 15 -132 4 -305 9 -385 11 -477 15 -559 14 -680
-10z"/>
</g>
</svg>
