<?xml version="1.0" encoding="utf-8"?>
<!-- Generator: Adobe Illustrator 24.0.0, SVG Export Plug-In . SVG Version: 6.00 Build 0)  -->
<svg version="1.1" id="Layer_1" xmlns="http://www.w3.org/2000/svg" xmlns:xlink="http://www.w3.org/1999/xlink" x="0px" y="0px"
	 viewBox="0 0 200 200" style="enable-background:new 0 0 200 200;" xml:space="preserve">
<style type="text/css">
	.st0{fill:#FFFFFF;}
</style>
<title>enlarge</title>
<g>
	<path class="st0" d="M99.7,112.3c-0.1,0-0.1-0.1-0.1-0.2v-11.7h-12c-0.1,0-0.1-0.1-0.1-0.2v-0.6c0-0.1,0.1-0.1,0.1-0.1h12V87.8
		c0-0.1,0.1-0.1,0.1-0.1h0.7c0.1,0,0.2,0.1,0.2,0.1v11.8h12c0.1,0,0.2,0.1,0.2,0.1v0.6c0,0.1-0.1,0.2-0.2,0.2h-12v11.7
		c0,0.1-0.1,0.2-0.2,0.2H99.7z"/>
	<path class="st0" d="M100.3,87.8v11.6v0.3h0.3h11.9v0.6h-11.9h-0.3v0.3v11.6h-0.7v-11.6v-0.3h-0.3H87.5v-0.6h11.9h0.3v-0.3V87.8
		H100.3 M100.3,87.5h-0.7c-0.2,0-0.3,0.1-0.3,0.3v11.6l-11.9,0c-0.2,0-0.3,0.1-0.3,0.3v0.6c0,0.2,0.1,0.3,0.3,0.3h11.9l0,11.6
		c0,0.2,0.1,0.3,0.3,0.3h0.7c0.2,0,0.3-0.1,0.3-0.3v-11.6l11.9,0c0.2,0,0.3-0.1,0.3-0.3v-0.6c0-0.2-0.1-0.3-0.3-0.3h-11.9l0-11.6
		C100.6,87.6,100.5,87.5,100.3,87.5L100.3,87.5z"/>
</g>
</svg>
