<svg xmlns="http://www.w3.org/2000/svg" viewBox="0 0 1024 1024"><defs><style>.cls-1{isolation:isolate;}.cls-2{fill:#eaeaea;opacity:0.9;mix-blend-mode:overlay;}.cls-3{fill:none;stroke:#848484;stroke-miterlimit:10;}.cls-4{stroke:#000;stroke-linejoin:bevel;stroke-width:2px;}</style></defs><title>ACADEMIC</title><g class="cls-1"><g id="Layer_2" data-name="Layer 2"><rect class="cls-2" x="968.69" y="11" width="46.04" height="212"/><rect class="cls-3" x="968.69" y="11" width="46.04" height="212"/></g><g id="Layer_1" data-name="Layer 1"><path class="cls-4" d="M986.07,46.25V34.57l-7.23-2.65V29.64l25.74,9.74v2.06l-25.74,9.74V48.92Zm1.84-11V45.56l14-5.16Z"/><path class="cls-4" d="M986.87,73a9.29,9.29,0,0,1-6.23-2.91,9.66,9.66,0,0,1-2.15-6.57,9.08,9.08,0,0,1,1.43-5.06A9.37,9.37,0,0,1,984,55.05a14.6,14.6,0,0,1,6-1.22h3.34A14.63,14.63,0,0,1,999.4,55a9.22,9.22,0,0,1,4.09,3.45,9.42,9.42,0,0,1,1.44,5.19,9.19,9.19,0,0,1-2.23,6.53A9.31,9.31,0,0,1,996.54,73V70.8q6.56-.81,6.55-7.12a6.76,6.76,0,0,0-2.62-5.58A11.35,11.35,0,0,0,993.24,56h-3.15a11.43,11.43,0,0,0-7.11,2,6.51,6.51,0,0,0-2.65,5.47A7.21,7.21,0,0,0,982,68.66a7.82,7.82,0,0,0,4.91,2.14Z"/><path class="cls-4" d="M986.07,92.17V80.49l-7.23-2.65V75.56l25.74,9.74v2.07l-25.74,9.74V94.84Zm1.84-11V91.48l14-5.16Z"/><path class="cls-4" d="M978.84,100.89h25.74v7.19a11.23,11.23,0,0,1-1.44,5.68,10,10,0,0,1-4.13,3.91,13,13,0,0,1-6.12,1.41h-2.36a13,13,0,0,1-6.12-1.4,10,10,0,0,1-4.12-3.93,11.49,11.49,0,0,1-1.45-5.83Zm23.9,2.17H980.68v4.88a8.38,8.38,0,0,0,2.7,6.52,10.42,10.42,0,0,0,7.3,2.46h2.26a10.2,10.2,0,0,0,7.11-2.42,8.26,8.26,0,0,0,2.69-6.38Z"/><path class="cls-4" d="M991.18,138.8v-12h-10.5v13.84h-1.84v-16h25.74v15.93h-1.84V126.77H993v12Z"/><path class="cls-4" d="M1004.58,148.07l-22.72,9.49,22.72,9.52V170H978.84v-2.17h11.21l11.49.18-22.7-9.58v-1.68l22.61-9.55-11.33.18H978.84v-2.18h25.74Z"/><path class="cls-4" d="M978.84,179.16V177h25.74v2.18Z"/><path class="cls-4" d="M986.87,204.36a9.24,9.24,0,0,1-6.23-2.9,9.68,9.68,0,0,1-2.15-6.57,9.08,9.08,0,0,1,1.43-5.06,9.31,9.31,0,0,1,4.06-3.41,14.44,14.44,0,0,1,6-1.22h3.34a14.63,14.63,0,0,1,6.08,1.2,9.3,9.3,0,0,1,4.09,3.46,9.42,9.42,0,0,1,1.44,5.19,9.19,9.19,0,0,1-2.23,6.53,9.3,9.3,0,0,1-6.16,2.78v-2.19q6.56-.81,6.55-7.12a6.76,6.76,0,0,0-2.62-5.58,11.35,11.35,0,0,0-7.23-2.08h-3.15a11.44,11.44,0,0,0-7.11,2,6.51,6.51,0,0,0-2.65,5.47A7.23,7.23,0,0,0,982,200a7.82,7.82,0,0,0,4.91,2.14Z"/></g></g></svg>