<?xml version="1.0" encoding="utf-8"?>
<!-- Generator: Adobe Illustrator 24.0.0, SVG Export Plug-In . SVG Version: 6.00 Build 0)  -->
<svg version="1.1" xmlns="http://www.w3.org/2000/svg" xmlns:xlink="http://www.w3.org/1999/xlink" x="0px" y="0px"
	 viewBox="0 0 177.4 89.9" style="enable-background:new 0 0 177.4 89.9;" xml:space="preserve">
<style type="text/css">
	.st0{opacity:0.8;}
	.st1{enable-background:new    ;}
	.st2{fill:#202020;}
	.st3{fill:#FBC387;}
	.st4{fill:#020202;}
	.st5{fill:#E3F2FF;}
	.st6{fill:#FFFFFF;stroke:#000000;stroke-width:0.25;stroke-miterlimit:10;}
	.st7{fill:#ADA1A1;}
	.st8{fill:#D37B79;}
	.st9{fill:#A0575F;}
</style>
<g id="Text" class="st0">
	<g class="st1">
		<path class="st2" d="M47.5,12.8H31v44.8H17.7V12.8H1.5V2.6h46V12.8z"/>
		<path class="st2" d="M99.7,31.3c0,5.4-1,10.1-3,14.3c-2,4.1-4.8,7.3-8.5,9.5c-3.7,2.2-7.8,3.3-12.5,3.3c-4.7,0-8.8-1.1-12.5-3.2
			c-3.6-2.2-6.5-5.2-8.5-9.2c-2-4-3.1-8.6-3.2-13.8V29c0-5.4,1-10.2,3-14.3s4.8-7.3,8.5-9.5c3.7-2.2,7.9-3.4,12.6-3.4
			c4.7,0,8.8,1.1,12.5,3.3c3.7,2.2,6.5,5.4,8.5,9.5s3.1,8.8,3.1,14.1V31.3z M86.2,28.9c0-5.5-0.9-9.6-2.7-12.5
			c-1.8-2.8-4.4-4.3-7.8-4.3c-6.7,0-10.2,5-10.6,15l0,4c0,5.4,0.9,9.5,2.7,12.4c1.8,2.9,4.4,4.3,8,4.3c3.4,0,5.9-1.4,7.8-4.3
			c1.8-2.8,2.7-6.9,2.8-12.3V28.9z"/>
		<path class="st2" d="M124,2.6l12.3,38.3l12.3-38.3H166v55.1h-13.3V44.8l1.3-26.3l-13.3,39.2h-8.8l-13.3-39.2l1.3,26.4v12.9h-13.3
			V2.6H124z"/>
	</g>
	<g class="st1">
		<path class="st2" d="M26.7,61.7l5.8,18.1l5.8-18.1h8.2v25.9h-6.3v-6.1l0.6-12.4l-6.3,18.5h-4.1l-6.3-18.5l0.6,12.4v6.1h-6.3V61.7
			H26.7z"/>
		<path class="st2" d="M66.6,76.7h-9.8v6.2h11.6v4.8H50.5V61.7h17.9v4.8H56.8V72h9.8V76.7z"/>
		<path class="st2" d="M77.2,82.9h10.9v4.8H70.9V61.7h6.3V82.9z"/>
		<path class="st2" d="M97,82.9h10.9v4.8H90.7V61.7H97V82.9z"/>
		<path class="st2" d="M132.5,75.3c0,2.5-0.5,4.8-1.4,6.7s-2.3,3.4-4,4.5s-3.7,1.6-5.9,1.6s-4.2-0.5-5.9-1.5c-1.7-1-3-2.5-4-4.4
			c-1-1.9-1.5-4.1-1.5-6.5v-1.5c0-2.5,0.5-4.8,1.4-6.7c0.9-1.9,2.3-3.4,4-4.5c1.7-1.1,3.7-1.6,5.9-1.6c2.2,0,4.2,0.5,5.9,1.6
			c1.7,1,3.1,2.5,4,4.5c1,1.9,1.4,4.1,1.5,6.6V75.3z M126.1,74.2c0-2.6-0.4-4.5-1.3-5.9c-0.9-1.3-2.1-2-3.7-2c-3.1,0-4.8,2.4-5,7.1
			l0,1.9c0,2.5,0.4,4.5,1.3,5.9s2.1,2,3.8,2c1.6,0,2.8-0.7,3.7-2c0.9-1.3,1.3-3.3,1.3-5.8V74.2z"/>
		<path class="st2" d="M156,61.7v17c0,1.9-0.4,3.6-1.2,5c-0.8,1.4-2,2.5-3.5,3.2c-1.5,0.7-3.3,1.1-5.4,1.1c-3.2,0-5.6-0.8-7.5-2.5
			c-1.8-1.6-2.7-3.9-2.8-6.7V61.7h6.3V79c0.1,2.8,1.4,4.3,4,4.3c1.3,0,2.3-0.4,2.9-1.1c0.7-0.7,1-1.9,1-3.5V61.7H156z"/>
		<path class="st2" d="M166.2,82.9h10.9v4.8h-17.1V61.7h6.3V82.9z"/>
	</g>
</g>
<g id="Tombik">
	<g>
		<path class="st3" d="M98.2,45.7C94,45.7,90.3,43,89,39c-0.6-1.6-0.9-2.4-1.6-2.4h-0.1c-0.7,0-1,1-2.1,3.1
			c-0.4,0.8-1.2,2.3-2.1,3.2c-1.8,1.8-4.3,2.9-6.9,2.9l-0.1,0c-2.4,0-5.3-1.2-6.9-2.8c-1.3-1.4-1.7-2.2-2-2.9
			c-0.1-0.1-0.1-0.3-0.2-0.4c-0.3-0.5-0.3-0.6-0.4-0.7l-0.1-0.1c-0.4-0.6-0.7-0.8-1.1-1.1c-0.3-0.3-0.7-0.5-1-0.7
			c-0.7-0.4-1.3-0.4-2-0.5l-1.8-0.1c-0.4,0-0.9,0-1.3,0c-0.1,0-0.3,0-0.4,0v0c0,0,0,0,0,0c-0.3-0.5-0.6-0.9-0.9-1.2c0,0,0,0,0,0
			c-1.1-1.2-2.7-1.9-4.5-1.9c-3.5,0-6.3,2.8-6.3,6.3c0,0.5,0.1,1,0.2,1.4c0.3,0.7,0.6,1.5,1,2.2c0.1,0.2,0.3,0.4,0.4,0.6
			c1.1,1.3,2.8,2.1,4.7,2.1c0.6,0,1.2-0.1,1.8-0.3c0,0.2-0.1,0.5-0.2,0.7c0,0,0,0.1,0,0.1c-0.5,1.3-1.6,1.9-1.7,3.9
			c5.3,5.6,12.8,9,21.1,9c7.3,0,14.1-2.7,19.2-7.2c-0.3,0.2-0.4,0.1-0.7-0.1c-0.3-0.2-0.6-0.5-2.9-1.3c-1.9-0.7-2.6-0.8-3.2-1.1
			c-0.2-0.1-0.5-0.1-0.6-0.6c0-1,0-3.1,0.2-3.2c0.5-0.4,1-0.5,2,0c1.1,0.6,0.8,0.5,2,1.3c0.5,0.3,1.2,0.6,2.2,1.8
			c0.8,0.9,1.1,1.5,1.3,2.4c0,0.1,0.1,0.3-0.1,0.6c2-1.8,3.8-3.9,5.2-6.2C98.7,45.7,98.5,45.7,98.2,45.7z M78.6,52
			c-0.3-0.3-0.2-0.6-0.2-0.7c0.2-0.9,0.5-1.5,1.3-2.4c1-1.1,1.7-1.4,2.2-1.8c1.3-0.8,0.9-0.8,2-1.3c1-0.5,1.5-0.4,2,0
			C86,45.9,86,47.9,86,49c0,0.4-0.3,0.5-0.6,0.6c-0.6,0.3-1.3,0.4-3.2,1.1c-2.3,0.8-2.6,1.2-2.9,1.3C79.1,52.2,78.9,52.3,78.6,52z"
			/>
		<path class="st3" d="M61.1,34.8c0.8-0.1,1.5-0.2,3-0.8c1.8-0.7,2.3-1,3.1-1.9c0.3-0.4,0.7-0.8,1-1.3c0.5-0.6,1.2-1.4,1.5-1.6
			c1.4-1.6,4.4-2.8,6.6-2.8c2.7,0,5.1,0.9,6.9,2.7c0.2,0.2,0.4,0.4,0.6,0.7c0.1,0.2,0.3,0.4,0.6,0.7l0.2,0.2
			c0.7,0.8,1.7,2.5,2.8,2.5c0,0,0.1,0,0.1,0c0.7,0,1.4-0.7,3-2.8c0.5-0.6,1.1-1.2,1.7-1.7c-8.4-3.2-20.6-7.3-26.1-4.4
			c-3.4,1.8-5,6.7-5.3,10.6c0,0,0,0,0,0.1C60.9,34.9,61,34.8,61.1,34.8z"/>
		<path d="M58,35.3c0.8-0.1,1.6-0.2,2.5-0.3c0.1,0,0.2,0,0.3-0.1c0,0,0,0,0-0.1c0.3-3.9,1.9-8.8,5.3-10.6c5.5-2.9,17.6,1.2,26.1,4.4
			c1.7-1.4,3.9-2.2,6.1-2.2c2,0,3.8,0.6,5.3,1.6C102.4,12.9,89.8,1,74.4,1C58.3,1,45.3,14.1,45.3,30.2c0,3.9,0.8,7.6,2.1,10.9
			c-0.1-0.5-0.2-1-0.2-1.5c0-3.5,2.8-6.3,6.3-6.3C55.2,33.3,56.8,34.1,58,35.3z"/>
		<path class="st4" d="M60.6,36.5c-0.4,0-0.9,0-1.3,0c-0.1,0-0.3,0-0.4,0c0.5,0.9,0.8,2,0.8,3.1c0,0.5-0.1,1-0.2,1.5
			c0.2,0,0.4-0.1,0.6-0.2c0.5-0.3,0.6-2.7,0.6-4.4L60.6,36.5z"/>
		<path class="st5" d="M98.2,27.6c-4.6,0-8.4,3.8-8.4,8.4c0,4.6,3.8,8.4,8.4,8.4s8.4-3.8,8.4-8.4C106.6,31.4,102.8,27.6,98.2,27.6z
			 M98.2,37.8c-1,0-1.9-0.8-1.9-1.9c0-1,0.8-1.9,1.9-1.9c1,0,1.9,0.8,1.9,1.9C100.1,37,99.2,37.8,98.2,37.8z"/>
		<path class="st5" d="M82.1,30.2c-1.5-1.5-3.6-2.3-5.7-2.3l-0.1,0c-2.1,0-4.2,0.9-5.7,2.4c-1.5,1.5-2.4,3.6-2.4,5.7
			c0,2.1,0.8,4.3,2.3,5.8c1.5,1.6,3.6,2.5,5.8,2.5l0.1,0c2.1,0,4.2-0.9,5.8-2.4c1.6-1.5,2.5-3.7,2.5-5.9
			C84.6,33.8,83.6,31.7,82.1,30.2z M76.2,37.8c-1,0-1.9-0.8-1.9-1.9c0-1,0.8-1.9,1.9-1.9c1,0,1.9,0.8,1.9,1.9
			C78.1,37,77.3,37.8,76.2,37.8z"/>
		<circle cx="76.2" cy="36" r="1.9"/>
		<circle cx="98.2" cy="36" r="1.9"/>
		<path d="M85.4,49.6c0.2-0.1,0.5-0.1,0.6-0.6c0-1,0-3.1-0.2-3.2c-0.5-0.4-1-0.5-2,0c-1.1,0.6-0.8,0.5-2,1.3
			c-0.5,0.3-1.2,0.6-2.2,1.8c-0.8,0.9-1.1,1.5-1.3,2.4c0,0.1-0.1,0.4,0.2,0.7c0.4,0.3,0.5,0.2,0.8,0c0.3-0.2,0.6-0.5,2.9-1.3
			C84.1,49.9,84.8,49.8,85.4,49.6z"/>
		<path d="M93.9,51.3c-0.2-0.9-0.5-1.5-1.3-2.4c-1-1.1-1.7-1.4-2.2-1.8c-1.3-0.8-0.9-0.8-2-1.3c-1-0.5-1.5-0.4-2,0
			c-0.1,0.1-0.2,2.2-0.2,3.2c0,0.4,0.3,0.5,0.6,0.6c0.6,0.3,1.3,0.4,3.2,1.1c2.3,0.8,2.6,1.2,2.9,1.3c0.3,0.2,0.4,0.2,0.7,0.1
			c0.1-0.1,0.2-0.1,0.2-0.2C93.9,51.6,93.9,51.4,93.9,51.3z"/>
		<path class="st6" d="M53.3,50.2C53.3,50.2,53.3,50.2,53.3,50.2c0-2,1.1-2.6,1.7-3.9C54.5,47.7,53.4,48.3,53.3,50.2z"/>
		<path class="st6" d="M55.2,45.6c0,0.2-0.1,0.5-0.2,0.7C55.1,46,55.2,45.8,55.2,45.6z"/>
		<path class="st7" d="M98.2,26.4c-3,0-5.9,1.5-7.8,3.9c-1.6,2.1-2.4,2.8-3,2.8c0,0-0.1,0-0.1,0c-1.1,0-2.1-1.7-2.8-2.5l-0.2-0.2
			c-0.3-0.3-0.4-0.5-0.6-0.7c-0.2-0.3-0.4-0.4-0.6-0.7c-1.8-1.8-4.2-2.7-6.9-2.7c-2.2,0-5.2,1.3-6.6,2.8c-0.2,0.2-1,1-1.5,1.6
			c-0.4,0.5-0.7,0.9-1,1.3C66.3,33,65.8,33.3,64,34c-1.5,0.6-2.1,0.7-3,0.8c-0.2,0-0.4,0.1-0.6,0.1c-0.9,0.1-1.7,0.2-2.5,0.3
			c0.4,0.4,0.7,0.8,0.9,1.2c0.1,0,0.3,0,0.4,0c0.4,0,0.9,0,1.3,0l1.8,0.1c0.6,0.1,1.3,0.1,2,0.5c0.3,0.2,0.7,0.4,1,0.7
			c0.3,0.3,0.7,0.5,1.1,1.1l0.1,0.1c0.1,0.1,0.2,0.2,0.4,0.7c0.1,0.1,0.1,0.2,0.2,0.4c0.3,0.7,0.7,1.5,2,2.9
			c1.6,1.6,4.4,2.8,6.9,2.8l0.1,0c2.5,0,5.1-1.1,6.9-2.9c0.8-0.9,1.7-2.3,2.1-3.2c1.1-2.2,1.4-3.1,2.1-3.1h0.1
			c0.7,0,1.1,0.8,1.6,2.4c1.3,4,5,6.7,9.2,6.7c5.3,0,9.7-4.3,9.7-9.7S103.5,26.4,98.2,26.4z M82.1,42c-1.5,1.5-3.6,2.4-5.8,2.4
			l-0.1,0c-2.2,0-4.3-0.9-5.8-2.5c-1.5-1.5-2.3-3.6-2.3-5.8c0-2.1,0.9-4.2,2.4-5.7c1.5-1.5,3.6-2.4,5.7-2.4l0.1,0
			c2.1,0,4.2,0.8,5.7,2.3c1.6,1.5,2.5,3.6,2.5,5.8C84.7,38.2,83.7,40.5,82.1,42z M98.2,44.5c-4.6,0-8.4-3.8-8.4-8.4
			c0-4.6,3.8-8.4,8.4-8.4s8.4,3.8,8.4,8.4C106.6,40.7,102.8,44.5,98.2,44.5z"/>
		<path class="st8" d="M85.2,50.4c-0.5-0.1-1.8,0.7-2.3,0.9c-0.6,0.2-1.3,0.3-1.4,0.5c-0.2,0.2,0.1,0.5,0.2,0.6
			c0.2,0.3,1.2,1.1,4.2,1.1c1.6,0,3,0.1,4.4-1.1c0.2-0.1,0.2-0.3,0.2-0.4c0-0.2-0.3-0.2-0.6-0.4c-0.2-0.1-0.4-0.2-0.6-0.3
			c-0.2-0.1-1.5-0.8-1.9-0.8c-1.1-0.1-1,0.3-1.2,0.2C85.9,50.6,86,50.5,85.2,50.4z"/>
		<path class="st9" d="M85.8,52.2c-0.9,0-1.8-0.2-2.6-0.1c0,0-0.3,0-0.3-0.1c0,0,0,0,0-0.1c0,0,0,0,0-0.1c0.1-0.1,0.3-0.1,0.3-0.1
			c0.4,0.1,2.1,0.1,2.6,0.1c0.4,0,2.1,0,2.5-0.1c0,0,0.3,0,0.3,0.1c0,0,0,0,0,0.1c0,0,0,0,0,0.1c-0.1,0.1-0.3,0.1-0.3,0.1
			C87.5,51.9,86.7,52.2,85.8,52.2z"/>
		<path d="M55,46.2c0.1-0.2,0.1-0.4,0.2-0.7c-0.6,0.2-1.2,0.3-1.8,0.3c-1.9,0-3.5-0.8-4.7-2.1c0,0.1,0.1,0.4,0.3,0.8
			c1.2,2.1,2.6,4,4.3,5.7C53.4,48.3,54.5,47.7,55,46.2C55,46.3,55,46.3,55,46.2z"/>
	</g>
</g>
<g id="Layer_1">
</g>
</svg>
