<?xml version="1.0" encoding="utf-8"?>
<!-- Generator: Adobe Illustrator 24.0.0, SVG Export Plug-In . SVG Version: 6.00 Build 0)  -->
<svg version="1.1" id="svgTitleLand" xmlns="http://www.w3.org/2000/svg" xmlns:xlink="http://www.w3.org/1999/xlink" x="0px"
	 y="0px" viewBox="0 0 84.7 12.1" style="enable-background:new 0 0 84.7 12.1;" xml:space="preserve">
<style type="text/css">
	.st0{opacity:0.65;enable-background:new    ;}
	.st1{fill:#1F1F1F;}
</style>
<title>smallName</title>
<g class="st0">
	<path class="st1" d="M7.2,3.2H4.6v7.1H2.8V3.2H0.2V1.8h6.9V3.2z"/>
	<path class="st1" d="M15.5,6.3c0,0.8-0.1,1.6-0.4,2.2s-0.7,1.1-1.3,1.5s-1.2,0.5-1.9,0.5c-0.7,0-1.3-0.2-1.9-0.5S9,9.1,8.7,8.5
		S8.2,7.1,8.2,6.3V5.9c0-0.8,0.2-1.6,0.5-2.2S9.4,2.5,10,2.2s1.2-0.5,1.9-0.5s1.3,0.2,1.9,0.5s1,0.8,1.3,1.5s0.5,1.4,0.5,2.2V6.3z
		 M13.7,5.9c0-0.9-0.2-1.6-0.5-2s-0.8-0.7-1.4-0.7c-0.6,0-1,0.2-1.4,0.7S10,5,10,5.8v0.4c0,0.9,0.2,1.5,0.5,2S11.3,9,11.9,9
		c0.6,0,1-0.2,1.4-0.7s0.5-1.1,0.5-2V5.9z"/>
	<path class="st1" d="M19.4,1.8L21.5,8l2.2-6.2H26v8.5h-1.8V8l0.2-4l-2.3,6.4h-1.2L18.6,4l0.2,4v2.3h-1.8V1.8H19.4z"/>
	<path class="st1" d="M33.5,1.8L35.6,8l2.2-6.2h2.3v8.5h-1.8V8l0.2-4l-2.3,6.4H35L32.7,4l0.2,4v2.3h-1.8V1.8H33.5z"/>
	<path class="st1" d="M47.1,6.6h-3.4v2.3h4v1.4H42V1.8h5.7v1.4h-3.9v2h3.4V6.6z"/>
	<path class="st1" d="M50.8,8.9h3.7v1.4H49V1.8h1.8V8.9z"/>
	<path class="st1" d="M57.6,8.9h3.7v1.4h-5.5V1.8h1.8V8.9z"/>
	<path class="st1" d="M69.6,6.3c0,0.8-0.1,1.6-0.4,2.2s-0.7,1.1-1.3,1.5s-1.2,0.5-1.9,0.5c-0.7,0-1.3-0.2-1.9-0.5s-1-0.8-1.3-1.5
		s-0.5-1.4-0.5-2.2V5.9c0-0.8,0.2-1.6,0.5-2.2s0.7-1.1,1.3-1.5s1.2-0.5,1.9-0.5s1.3,0.2,1.9,0.5s1,0.8,1.3,1.5s0.5,1.4,0.5,2.2V6.3z
		 M67.8,5.9c0-0.9-0.2-1.6-0.5-2S66.6,3.1,66,3.1c-0.6,0-1,0.2-1.4,0.7s-0.5,1.1-0.5,2v0.4c0,0.9,0.2,1.5,0.5,2S65.4,9,66,9
		c0.6,0,1-0.2,1.4-0.7s0.5-1.1,0.5-2V5.9z"/>
	<path class="st1" d="M77.7,1.8v5.6c0,0.9-0.3,1.7-0.9,2.2s-1.4,0.8-2.4,0.8c-1,0-1.8-0.3-2.4-0.8s-0.9-1.3-0.9-2.2V1.8h1.8v5.6
		c0,0.6,0.1,1,0.4,1.2S73.9,9,74.4,9c1,0,1.5-0.5,1.5-1.6V1.8H77.7z"/>
	<path class="st1" d="M81.2,8.9h3.7v1.4h-5.5V1.8h1.8V8.9z"/>
</g>
</svg>
