<?xml version="1.0" encoding="utf-8"?>
<!-- Generator: Adobe Illustrator 24.0.0, SVG Export Plug-In . SVG Version: 6.00 Build 0)  -->
<svg version="1.1" xmlns="http://www.w3.org/2000/svg" xmlns:xlink="http://www.w3.org/1999/xlink" x="0px" y="0px"
	 viewBox="0 0 100 100" style="enable-background:new 0 0 100 100;" xml:space="preserve">
<style type="text/css">
	.st0{fill:#FFFFFF;}
</style>
<g id="Layer_2">
</g>
<g id="Layer_1">
	<title>56</title>
	<g>
		
			<image style="overflow:visible;opacity:0.75;" width="90" height="92" xlink:href="E5491091.png"  transform="matrix(1 0 0 1 8 7)">
		</image>
		<g>
			<path class="st0" d="M86,10.9H65.5c-1.7,0-3,1.3-3,3s1.3,3,3,3h13.3L55,40.7c-1.2,1-1.4,2.8-0.5,4.1c0.6,0.8,1.5,1.2,2.4,1.2
				c0.6,0,1.3-0.2,1.8-0.6c0.2-0.1,0.3-0.3,0.5-0.5L83,21.1v13.3c0,1.7,1.3,3,3,3s3-1.3,3-3V13.9C89,12.2,87.7,10.9,86,10.9z"/>
			<path class="st0" d="M45,54.6c-1.2-1.1-3-1.1-4.2,0L17.1,78.8L17,65.6c0-1.7-1.3-3-3-3s-3,1.3-3,3l0.3,20.5c0,1.7,1.3,3,3,3
				l20.5-0.3c1.7,0,3-1.3,3-3s-1.3-3-3-3h0L21.5,83L45,58.8C46.2,57.6,46.2,55.8,45,54.6C45,54.6,45,54.6,45,54.6z M34.8,84.8
				C34.8,84.8,34.8,84.8,34.8,84.8L34.8,84.8C34.8,84.8,34.8,84.8,34.8,84.8z"/>
		</g>
	</g>
</g>
</svg>
