<svg xmlns="http://www.w3.org/2000/svg" viewBox="0 0 1024 1024"><defs><style>.cls-1{isolation:isolate;}.cls-2{opacity:0.5;}.cls-3{fill:#fc9;opacity:0.9;mix-blend-mode:overlay;}.cls-4{stroke:#000;stroke-linejoin:bevel;stroke-width:2px;}</style></defs><title>PRACTICAL-hover</title><g class="cls-1"><g id="Layer_2" data-name="Layer 2"><g class="cls-2"><rect class="cls-3" x="968.69" y="11" width="46.04" height="212"/></g></g><g id="Layer_1" data-name="Layer 1"><path class="cls-4" d="M989.32,27.7H978.84V25.53h25.74v8.76a9.28,9.28,0,0,1-2.05,6.34,8.08,8.08,0,0,1-11.24.09q-2-2.23-2-6.48Zm1.84,0v6.59a6.94,6.94,0,0,0,1.51,4.83,5.35,5.35,0,0,0,4.19,1.66,5.64,5.64,0,0,0,4.26-1.65,6.61,6.61,0,0,0,1.62-4.7V27.7Z"/><path class="cls-4" d="M989.57,57.43V50H978.84V47.76h25.74v8.36a9.57,9.57,0,0,1-2,6.44,7.62,7.62,0,0,1-9.94.86A7.37,7.37,0,0,1,990,59.54l-11,6.43h-.23V63.65ZM991.41,50v6.67A6.18,6.18,0,0,0,993,61a5.25,5.25,0,0,0,4,1.66,5.31,5.31,0,0,0,4.23-1.73,7.16,7.16,0,0,0,1.51-4.86V50Z"/><path class="cls-4" d="M986.07,84.69V73l-7.23-2.65V68.07l25.74,9.74v2.07l-25.74,9.74V87.36Zm1.84-11V84l14-5.16Z"/><path class="cls-4" d="M986.87,111.43a9.21,9.21,0,0,1-6.23-2.91,9.64,9.64,0,0,1-2.15-6.56,9.14,9.14,0,0,1,1.43-5.07,9.35,9.35,0,0,1,4.06-3.4,14.44,14.44,0,0,1,6-1.22h3.34a14.63,14.63,0,0,1,6.08,1.2,9.24,9.24,0,0,1,4.09,3.46,9.42,9.42,0,0,1,1.44,5.19,9.21,9.21,0,0,1-2.23,6.53,9.35,9.35,0,0,1-6.16,2.78v-2.19q6.56-.81,6.55-7.12a6.73,6.73,0,0,0-2.62-5.58,11.35,11.35,0,0,0-7.23-2.08h-3.15a11.44,11.44,0,0,0-7.11,2,6.51,6.51,0,0,0-2.65,5.47A7.23,7.23,0,0,0,982,107.1a7.82,7.82,0,0,0,4.91,2.14Z"/><path class="cls-4" d="M1002.74,133.67v-8.82h-23.9v-2.18h23.9v-8.8h1.84v19.8Z"/><path class="cls-4" d="M978.84,140.47V138.3h25.74v2.17Z"/><path class="cls-4" d="M986.87,165.68a9.21,9.21,0,0,1-6.23-2.91,9.64,9.64,0,0,1-2.15-6.56,9.14,9.14,0,0,1,1.43-5.07,9.29,9.29,0,0,1,4.06-3.4,14.44,14.44,0,0,1,6-1.22h3.34a14.63,14.63,0,0,1,6.08,1.2,9.18,9.18,0,0,1,4.09,3.46,9.41,9.41,0,0,1,1.44,5.18,9.22,9.22,0,0,1-2.23,6.54,9.35,9.35,0,0,1-6.16,2.78v-2.19q6.56-.81,6.55-7.13a6.72,6.72,0,0,0-2.62-5.57,11.29,11.29,0,0,0-7.23-2.08h-3.15a11.5,11.5,0,0,0-7.11,2,6.53,6.53,0,0,0-2.65,5.48,7.24,7.24,0,0,0,1.63,5.14,7.87,7.87,0,0,0,4.91,2.14Z"/><path class="cls-4" d="M986.07,184.86V173.17l-7.23-2.65v-2.28l25.74,9.74v2.07l-25.74,9.74v-2.26Zm1.84-11v10.32l14-5.16Z"/><path class="cls-4" d="M980.68,195.76v12.71h-1.84v-14.9h25.74v2.19Z"/></g></g></svg>